<svg xmlns="http://www.w3.org/2000/svg" version="1.0" viewBox="0 0 129 65"><g fill="#FFF" stroke-width="0"><path d="M13 32v26h103V6H13v26zm70.6-21.4c-.5 1.3-.3 1.4.6.7 1.8-1.5 5.1 0 7.1 3.1 1.9 2.8 2.3 7.6.7 7.6-.5 0-1 .6-1 1.4 0 .8-.9 1.8-2 2.1-1.1.3-2 1.3-2 2.1 0 1.8-1 1.7-3.4-.1-1.1-.8-3.5-1.5-5.3-1.5-2.1 0-3.6-.6-3.9-1.5-.4-1-1-1.2-1.8-.6-1.7 1.4-5.6-.6-5.6-2.8 0-3.2 1.9-7.1 3.7-7.8 1-.3 2.5-1.2 3.3-1.8 1.7-1.4 4.3-2.2 7.9-2.4 1.8-.1 2.2.3 1.7 1.5zM57.6 32c1.8 0 2.4.5 2.4 2.1v2l2.5-2c2.4-1.8 4.1-2 23.9-2 27 0 26.1-.5 26.1 13.7v9.7l-3.2.3c-3.7.4-4.1-.5-4.5-10.3-.3-5.7-.4-6-3-6.3-3.2-.4-3.6.8-4 10.3-.3 6-.3 6-3.5 6.3-2 .2-3.3-.1-3.3-.8 0-.6-.5-.8-1.2-.4-1.8 1.2-13.8 1.6-13.8.5 0-.6-1.2-.6-3.2-.1-3.9 1.2-7.6.4-10.5-2.2-2.1-2-2.1-2-2.5.4-.3 2-.8 2.3-4.1 2.2-5.8-.2-7.7-2.6-7.7-9.5 0-3.2-.4-6.1-1-6.4-.6-.4-1 2.5-1 7.9V56h-6.9l-.3-8.3-.3-8.2-2.9-.3c-3.9-.5-4.6 1-4.6 9.5v7.2l-7.2-.2-7.3-.2-.3-11.8-.3-11.8 7.8.1c4.3.1 11.5.1 16.1.1 8-.1 8.2-.1 8.2-2.6 0-1.9.7-2.6 3.3-3.3 3.1-.8 3.2-.7 3.5 2.5.3 2.7.7 3.3 2.8 3.3z"/><path d="M55.4 40.4c-1 2.5 0 7.1 1.6 7.4 1.2.2 1.4-.7 1.2-4.3-.4-4.4-1.7-5.9-2.8-3.1zm11.8-.2c-1.7 1.7-1.5 6.5.4 7.2 4.3 1.7 8.4-.4 8.4-4.3 0-3.3-6.3-5.4-8.8-2.9z"/></g><path fill="#FFC" d="M82 9.4c0 .2.6.9 1.4 1.5 1.1.9 1.6.9 2.2 0 .4-.8.3-.9-.4-.5s-1.2.2-1.2-.3c0-.6-.4-1.1-1-1.1-.5 0-1 .2-1 .4zm-6.2 1.3c.7.3 1.6.2 1.9-.1.4-.3-.2-.6-1.3-.5-1.1 0-1.4.3-.6.6z"/><path fill="#CFC" d="M91.7 17.1c.4 1.3.8 1.8 1.1 1 .2-.7-.1-1.8-.6-2.3-.8-.8-.9-.4-.5 1.3zm-17.6.5c0 1.1.3 1.4.6.6.3-.7.2-1.6-.1-1.9-.3-.4-.6.2-.5 1.3zm9.2 27.9c0 3.3.2 4.5.4 2.7.2-1.8.2-4.5 0-6s-.4 0-.4 3.3z"/><path fill="#CF9" d="M83 52.4c0 2.3 1.6 2.7 1.7.5.1-1-.2-1.9-.8-1.9-.5 0-.9.6-.9 1.4z"/><path fill="#9C6" d="M77.3 11.3c-5.5 1.8-3.6 3.3 3.5 2.7 1.2-.1 2.2.4 2.2 1.1 0 .8.4.8 1.3.1.6-.5 2.2-.8 3.5-.6 3 .5 2.8-1-.3-2.4-2.1-1-2.5-.9-2.5.4 0 1.1-.5 1.4-1.6 1-.9-.3-1.8-.6-2.1-.6-.3 0 0-.7.7-1.5 1.5-1.8.3-1.8-4.7-.2zm8 36.5c-.6.4-1 1.9-1 3.4.2 2.5.3 2.6 2.1 1 1-.9 2.1-1.6 2.5-1.5.6.3.6-.3.3-2.7-.2-1.2-2.2-1.3-3.9-.2z"/><path fill="#9C9" d="M68.5 15.1c-.4.6-.5 1.2-.2 1.5.2.3.7-.2 1-1.1.7-1.7.1-2-.8-.4zM78 15c-.8.5-2.4.7-3.5.4-2-.6-2-.6 0 .9s4.6.9 6-1.3c.8-1.3-.5-1.3-2.5 0zm10 .4c.5.7.7 1.5.4 1.8-.2.3.2.8 1 1.1 1.6.6 2.8-1.4 1.8-2.9-.4-.5-1.5-1-2.5-1-1.3-.2-1.5.1-.7 1zm-5.6 1.9-1.9 2.2 2.1-1.8c1.7-1.4 2.3-1.5 2.7-.5.4.9.6.9.6.1.2-2.2-1.6-2.3-3.5 0z"/><path fill="#6C6" d="M69.7 14.6c-1.3 1.3-.7 2.4 1.4 2.4 1.1 0 1.9-.5 1.7-1.2-.5-1.4-2.2-2.1-3.1-1.2zm5.1.6c.9.9 1.5.9 2.4 0 .9-.9.7-1.2-1.2-1.2s-2.1.3-1.2 1.2zm5.2.3c-1 1.3-.9 1.5.9 1.5 1.2 0 2.1-.6 2.1-1.5 0-.8-.4-1.5-.9-1.5s-1.4.7-2.1 1.5zm5.2-.3c.5 1.5 2.8 2.3 2.8 1 0-.5-.7-1.3-1.6-1.6-1-.4-1.4-.1-1.2.6zM84 46c0 2.3 0 2.3 3.4 1 3.5-1.3 3.3-2.5-.4-2.8-2.4-.2-3 .2-3 1.8z"/><path fill="#6C9" d="M71.6 16.8c-1.8.4-4.6 2.5-4.6 3.5 0 .2.6.4 1.3.5.6.1 2.8.5 4.8.8 2.2.4 5.5-.1 8.4-1 2.6-.9 5-1.4 5.3-1.2.3.3-.3.8-1.2 1.2-.9.3-1.6 1-1.6 1.4 0 .5 1.8.1 4.1-.8 3.8-1.5 3.9-1.6 1.9-2.7-1.1-.6-1.7-1.5-1.3-2 .4-.5-.5-.1-2.1.9-2 1.3-3.1 1.5-3.9.7-1.6-1.6-5.2-1.3-6.7.4-1.1 1.3-1 1.4.5.9 1.3-.5 1.6-.4 1.1.4-.4.6-1.8 1.1-3.1 1-2.6-.2-3.3-1.4-1.3-2 1.9-.7.4-2.4-1.6-2zM84 41.4c0 1.8.7 2.5 2.6 2.9 2.7.5 4.1-1.1 3-3.8-.8-2.1-2.7-1.9-2 .2.5 1.7.5 1.7-.6 0-1.6-2.4-3-2.1-3 .7z"/><path fill="#CFF" d="M84.7 28.1c.7.7 1.5 1 1.8.7.3-.3-.2-.9-1.2-1.2-1.4-.6-1.5-.5-.6.5zm5.6 11.4c0 4.4.2 6.1.4 3.7.2-2.3.2-5.9 0-8-.2-2-.4-.1-.4 4.3zm-57.5-.8c.6.2 1.8.2 2.5 0 .6-.3.1-.5-1.3-.5-1.4 0-1.9.2-1.2.5zm72.2 8.1.5 7.7.3-6.9c.2-3.8-.1-7.3-.5-7.7-.4-.4-.6 2.7-.3 6.9zm-39.9-3.2c0 1.1.3 1.4.6.6.3-.7.2-1.6-.1-1.9-.3-.4-.6.2-.5 1.3zm25 6c0 1.1.3 1.4.6.6.3-.7.2-1.6-.1-1.9-.3-.4-.6.2-.5 1.3zm-73.2 5.7c.5.5 2.1.7 3.7.5 2.7-.3 2.6-.4-.8-.9-2.2-.3-3.4-.1-2.9.4zm9.4.4c.9.2 2.5.2 3.5 0 .9-.3.1-.5-1.8-.5-1.9 0-2.7.2-1.7.5zm14.5 0c1.2.2 3 .2 4 0 .9-.3-.1-.5-2.3-.4-2.2 0-3 .2-1.7.4zm14.5 0c.9.2 2.3.2 3 0 .6-.3-.1-.5-1.8-.5-1.6 0-2.2.2-1.2.5zm13.5 0c.7.3 1.6.2 1.9-.1.4-.3-.2-.6-1.3-.5-1.1 0-1.4.3-.6.6zm9 0c1.2.2 3 .2 4 0 .9-.3-.1-.5-2.3-.4-2.2 0-3 .2-1.7.4zm14.5 0c.9.2 2.5.2 3.5 0 .9-.3.1-.5-1.8-.5-1.9 0-2.7.2-1.7.5zm15 0c.9.2 2.5.2 3.5 0 .9-.3.1-.5-1.8-.5-1.9 0-2.7.2-1.7.5z"/><path fill="#9FC" d="M83.4 33.4c-.3.8-.4 2.7-.1 4.3.3 2.4.4 2.3.6-.9 0-2 .7-3.9 1.4-4.1.9-.4.9-.6-.1-.6-.7-.1-1.5.5-1.8 1.3z"/><path fill="#9CC" d="M16.3 39c0 3.6.2 5 .4 3.2.2-1.7.2-4.7 0-6.5-.2-1.7-.4-.3-.4 3.3zm42.8-4.3c-.1 2.7 1.1 3 3 .5 1.3-1.5 1.2-1.6-.3-.4-1.4 1.1-1.7 1-2.1-.5-.4-1.4-.5-1.3-.6.4zm-35.8 5.8c0 3.8.2 5.3.4 3.2.2-2 .2-5.2 0-7-.2-1.7-.4-.1-.4 3.8zm34.8 2.1c0 1.1.3 1.4.6.6.3-.7.2-1.6-.1-1.9-.3-.4-.6.2-.5 1.3zm-41.8 7.9c0 2.2.2 3 .4 1.7.2-1.2.2-3 0-4-.3-.9-.5.1-.4 2.3zm40.5-1.8c.7.3 1.6.2 1.9-.1.4-.3-.2-.6-1.3-.5-1.1 0-1.4.3-.6.6zM23.2 52c0 1.9.2 2.7.5 1.7.2-.9.2-2.5 0-3.5-.3-.9-.5-.1-.5 1.8z"/><path fill="#3C9" d="M72 20.1c0 .5.5.7 1 .4.6-.3 1-.8 1-1.1 0-.2-.4-.4-1-.4-.5 0-1 .5-1 1.1zm3.5-.1c-.3.5-.2 1 .4 1 .5 0 1.3-.5 1.6-1 .3-.6.2-1-.4-1-.5 0-1.3.4-1.6 1zm9 0c-.3.5-.2 1 .4 1 .5 0 1.3-.5 1.6-1 .3-.6.2-1-.4-1-.5 0-1.3.4-1.6 1zM68 21c0 1.2 2.8 2.5 3.6 1.7.3-.3-.4-1-1.5-1.7-1.5-.7-2.1-.7-2.1 0zm10.8.6c-3.2 1.7-3.7 3.4-.9 3.4 1 0 2.6-1.1 3.5-2.5 1.9-2.8 1.3-3.1-2.6-.9zm8.2.4-3.5 1.9 3.2.1c2.2 0 3.6-.6 4.3-2 1.3-2.5.5-2.5-4 0zm.6 12.5c1.8 1.4 1.8 1.4-.8 1.5-1.8 0-2.8.5-2.8 1.5 0 .8.3 1.5.8 1.6 5.4.6 5.2.7 5.2-2.8 0-2.7-.4-3.3-2.2-3.3-2.1 0-2.1 0-.2 1.5zM42.7 54.1c.7.7 1.5 1 1.8.7.3-.3-.2-.9-1.2-1.2-1.4-.6-1.5-.5-.6.5zm-24.4.6c.9.2 2.5.2 3.5 0 .9-.3.1-.5-1.8-.5-1.9 0-2.7.2-1.7.5zm8.5 0c.6.2 1.8.2 2.5 0 .6-.3.1-.5-1.3-.5-1.4 0-1.9.2-1.2.5zm51.5 0c.9.2 2.3.2 3 0 .6-.3-.1-.5-1.8-.5-1.6 0-2.2.2-1.2.5zm15.5 0c.6.2 1.8.2 2.5 0 .6-.3.1-.5-1.3-.5-1.4 0-1.9.2-1.2.5z"/><path fill="#6CC" d="M71 23c-.9.6-1 1-.3 1 .6 0 1.5-.5 1.8-1 .8-1.2.4-1.2-1.5 0zm3.8-.3c.7.3 1.6.2 1.9-.1.4-.3-.2-.6-1.3-.5-1.1 0-1.4.3-.6.6zm5.7 1.3c-.5.9.1 1.2 2.1.9.4 0 1.1.5 1.5 1.3.6.9.9.9.9.1 0-1.7-3.7-3.6-4.5-2.3zm-32.7 7.5c-.2.3-3.5.5-7.2.6-3.7.1-6.4.4-6.2.7.9.9 13 .2 14-.8.6-.6.8-1 .5-1-.3 0-.8.2-1.1.5zm-30.5 1.1c.3.3 3.1.5 6.2.5s5.9-.2 6.2-.5c.3-.2-2.5-.5-6.2-.5s-6.5.3-6.2.5zm39.5.1c.7.3 1.6.2 1.9-.1.4-.3-.2-.6-1.3-.5-1.1 0-1.4.3-.6.6zm11.5 0c.9.2 2.5.2 3.5 0 .9-.3.1-.5-1.8-.5-1.9 0-2.7.2-1.7.5zm7.7-.2c0 .7 3.9 1.2 4.9.5.7-.4-.1-.7-1.8-.8-1.7 0-3.1.1-3.1.3zm15-.1c0 .2 1.5.6 3.4.8 1.9.2 3.2 0 3-.4-.5-.8-6.4-1.2-6.4-.4zm-6 2c0 .9.5 1.6 1 1.6.6 0 1-.4 1-.9 0-.6-.4-1.3-1-1.6-.5-.3-1 .1-1 .9zM57 38c-2.3.7-2.3.8-.3.9 1.2.1 2.5-.4 2.8-.9.3-.6.5-1 .3-.9-.2.1-1.4.5-2.8.9zm16.5-.1c-.3.5-.2 1.2.3 1.5.5.3.9-.1.9-.9 0-1.7-.3-1.9-1.2-.6zM59.2 52c0 1.4.2 1.9.5 1.2.2-.6.2-1.8 0-2.5-.3-.6-.5-.1-.5 1.3z"/><path fill="#3CC" d="M83.3 25.3c-.3.6-.1.7.5.3.7-.4 1.2-.2 1.2.4 0 .6.5.8 1 .5.6-.3 1-1 1-1.4 0-1.1-3-.9-3.7.2zM87 35c0 .5.5 1 1.1 1 .5 0 .7-.5.4-1-.3-.6-.8-1-1.1-1-.2 0-.4.4-.4 1z"/><path fill="#399" d="M54.2 31c0 1.4.2 1.9.5 1.2.2-.6.2-1.8 0-2.5-.3-.6-.5-.1-.5 1.3zM82 36.7c0 2.8-.3 3.4-1 2.3-.5-.8-1-1-1-.5 0 .6.4 1.5.9 2 .5.6 1.1 1.9 1.4 3 .3 1.1.5-.8.6-4.3 0-3.4-.1-6.2-.4-6.2-.3 0-.5 1.7-.5 3.7zM68.3 36c.2.8 1.2 1.6 2.3 1.7 1.3.2 1.5.1.4-.4-.8-.3-1.9-1.1-2.3-1.7-.6-.7-.7-.6-.4.4zM97 44.4c0 1.9-.6 3.7-1.2 3.9-1 .4-1 .8-.2 1.4.7.4 1.4 1.7 1.6 2.8.3 1.1.5-1 .6-4.8.1-3.7-.1-6.7-.3-6.7-.3 0-.5 1.5-.5 3.4zm-45.5-1.5c-.3.5-.2 1.2.3 1.5.5.3.9-.1.9-.9 0-1.7-.3-1.9-1.2-.6zm-6.2 5.6c0 3.3.2 4.5.4 2.7.2-1.8.2-4.5 0-6s-.4 0-.4 3.3zm67 .5c0 3 .2 4.3.4 2.8.2-1.6.2-4 0-5.6-.2-1.5-.4-.2-.4 2.8zm-5.8-3c-.3.5-.1 1 .4 1 .6 0 1.1-.5 1.1-1 0-.6-.2-1-.4-1-.3 0-.8.4-1.1 1zm-24.2 4.5c0 2.2.2 3 .4 1.7.2-1.2.2-3 0-4-.3-.9-.5.1-.4 2.3zm-52.6-1.3c-.2.7-.1 2.2.4 3.3.6 1.6.8 1.4.8-1.3.1-3.3-.4-4.1-1.2-2zm40.1.5c.7.3 1.6.2 1.9-.1.4-.3-.2-.6-1.3-.5-1.1 0-1.4.3-.6.6zM65.5 53c-.3.5.1 1 1 1s1.3-.5 1-1c-.3-.6-.8-1-1-1-.2 0-.7.4-1 1zm43 0c.3.5.8 1 1.1 1 .2 0 .4-.5.4-1 0-.6-.5-1-1.1-1-.5 0-.7.4-.4 1z"/><g fill="#099" stroke-width="0"><path d="M50.9 27.7c-.9.2-1.9 1.6-2.2 3.1-.5 2.6-.8 2.7-5.3 2.4-3.2-.3-4.9 0-5.5.9-.6 1-.9 1.1-.9.1 0-1.5-3.2-1.6-4.8 0-.9.9-1.2.9-1.2 0 0-2-5.8-1.5-6.4.5-.7 2.5-.1 16.8.8 18.1.4.7 1.6 1.2 2.7 1.2 1.8 0 2-.4 1.4-3-.4-1.9-.3-3 .4-3 .6 0 1.1-1.8 1.1-3.9 0-2.2.3-4.6.6-5.5.7-1.8 4.9-2.2 5.9-.6.4.6 1.1.7 1.7.4.7-.5.9.2.4 2-.4 1.8-.2 3.4.6 4.4 1 1.2 1 1.6.1 1.9-1.6.6-1.7 5.9-.2 6.9.6.3 1.5 0 2-.7.6-1 .9-1.1.9-.2 0 .7.5 1.3 1 1.3.6 0 1-3.1 1-7.3 0-7.1 1.3-11.9 2.4-8.7.2.8.7 4.2 1 7.5.6 6.8 2.1 8.5 7.4 8.5 2.9 0 3.3-.3 3-2.2-.2-1.3-1-2.3-1.8-2.3-1.1 0-1.6-1.4-1.8-5.8-.3-5.2-.1-5.7 1.8-5.7 1.5 0 2-.6 2-2.5 0-2-.5-2.5-2.6-2.5-2.4 0-2.6-.3-2-3 .6-3 .2-3.3-3.5-2.3zM53 43.6c0 .8-.5 1.2-1 .9-.6-.4-.8-1.1-.5-1.6.9-1.4 1.5-1.1 1.5.7zm2 6.4c0 .5-.4 1-1 1-.5 0-1-.5-1-1 0-.6.5-1 1-1 .6 0 1 .4 1 1zm-38-6.5V54h2.8c2.6 0 2.7-.2 2.9-5.3.1-2.8 0-7.6-.3-10.5-.5-4.7-.8-5.2-3-5.2C17 33 17 33 17 43.5zm2.5 8.5c.3.5.1 1-.4 1-.6 0-1.1-.5-1.1-1 0-.6.2-1 .4-1 .3 0 .8.4 1.1 1z"/><path d="M63.7 34.6c-1.5.8-2.5 1.9-2.2 2.5.4.5-.1 1.7-1 2.6-3.5 3.4 1 14.5 5.1 12.9.7-.3 1.6-.1 1.9.4.8 1.2 5.8.9 6.7-.4.5-.7 1.1-.7 2 .2.6.6 2.2 1.2 3.5 1.2 2.2 0 2.3-.4 2.3-6.4 0-3.6-.4-6.7-.9-7.1-.5-.3-.7-2-.4-3.8.4-2.8.2-3.3-1.6-3.4-1.2-.1-2.1.3-2.1.8 0 .6-.4.8-.9.4-2.3-1.3-9.7-1.3-12.4.1zm7.7 2.8c1.2.4 2.3.2 2.8-.6.5-.9.8-.6.8.9 0 1.3.5 2.3 1 2.3 1.4 0 1.2 6.2-.3 8-3.2 3.9-12.8 1-12.6-3.8 0-1.4.2-1.3.8.3.6 1.5.9 1.1 1.4-2.3.5-2.7 1.2-4.2 2.2-4.2.9 0 1.2-.6.9-1.8-.4-1-.3-1.3.3-.6.4.6 1.7 1.4 2.7 1.8zm19.8 6 .3 10.1 2.8.1c2 .1 2.7-.4 2.7-1.7 0-.9-.6-2-1.2-2.3-1-.5-1-.7 0-1.2.6-.3 1.2-2 1.3-3.7.1-4.5 1.2-7 3.4-7.3 3.4-.5 5.5 1.4 5.5 5.2 0 2.1.4 3.3 1 2.9.6-.3 1-.1 1 .4 0 .6-.4 1.1-1 1.1-.5 0-1 1.6-1 3.5 0 2.5.4 3.5 1.6 3.5.8 0 1.2-.5.9-1-.3-.6-.1-1 .4-1 .6 0 1.1.4 1.1 1 0 .5.5 1 1 1 .6 0 1-3.3.9-8.4-.1-11.1-1.2-12-12.7-12.2l-8.3-.1.3 10.1zm4.3-.3c1.1 1.7-.1 2.1-1.5.4-.8-.9-.8-1.5-.2-1.5.6 0 1.4.5 1.7 1.1z"/></g><path fill="#096" d="M22.2 35.5c0 1.6.2 2.2.5 1.2.2-.9.2-2.3 0-3-.3-.6-.5.1-.5 1.8zm59 0c0 1.6.2 2.2.5 1.2.2-.9.2-2.3 0-3-.3-.6-.5.1-.5 1.8zM60.5 38c-.3.5-.1 1 .4 1 .6 0 1.1-.5 1.1-1 0-.6-.2-1-.4-1-.3 0-.8.4-1.1 1zm15.6 3.6c0 1.1.3 1.4.6.6.3-.7.2-1.6-.1-1.9-.3-.4-.6.2-.5 1.3zm-13 3c0 1.1.3 1.4.6.6.3-.7.2-1.6-.1-1.9-.3-.4-.6.2-.5 1.3zM75.2 47c-1.8 2.9-1.5 3.8.4 1.2.9-1.3 1.4-2.5 1.2-2.7-.2-.2-.9.5-1.6 1.5zm-53.1 3.6c0 1.1.3 1.4.6.6.3-.7.2-1.6-.1-1.9-.3-.4-.6.2-.5 1.3zm2 0c0 1.1.3 1.4.6.6.3-.7.2-1.6-.1-1.9-.3-.4-.6.2-.5 1.3z"/><path fill="#9C3" d="M85.9 52.7c-.9 1-.6 1.3 1.5 1.3 1.5 0 2.6-.6 2.6-1.3 0-.8-.7-1.4-1.5-1.4s-2 .6-2.6 1.4z"/><path fill="#CF6" d="M85.8 54.7c.6.2 1.8.2 2.5 0 .6-.3.1-.5-1.3-.5-1.4 0-1.9.2-1.2.5z"/></svg>